<svg width="24" height="24" viewBox="0 0 24 24" fill="none" xmlns="http://www.w3.org/2000/svg">
<path d="M20.6426 10.6196C20.8727 10.8745 21 11.2056 21 11.549C21 11.8924 20.8727 12.2236 20.6426 12.4785C19.186 14.0461 15.8704 17.098 12 17.098C8.12956 17.098 4.81403 14.0461 3.35741 12.4785C3.12735 12.2236 3 11.8924 3 11.549C3 11.2056 3.12735 10.8745 3.35741 10.6196C4.81403 9.05196 8.12956 6 12 6C15.8704 6 19.186 9.05196 20.6426 10.6196Z" stroke="#535F5F" stroke-linecap="round" stroke-linejoin="round"/>
<path d="M12.0001 14.3236C13.5324 14.3236 14.7746 13.0814 14.7746 11.549C14.7746 10.0167 13.5324 8.77454 12.0001 8.77454C10.4678 8.77454 9.22559 10.0167 9.22559 11.549C9.22559 13.0814 10.4678 14.3236 12.0001 14.3236Z" stroke="#535F5F" stroke-linecap="round" stroke-linejoin="round"/>
</svg>
