<svg width="21" height="20" viewBox="0 0 21 20" fill="none" xmlns="http://www.w3.org/2000/svg">
<path d="M10.5 1C12.28 1 14.0201 1.52784 15.5001 2.51677C16.9802 3.5057 18.1337 4.91131 18.8149 6.55584C19.4961 8.20038 19.6743 10.01 19.3271 11.7558C18.9798 13.5016 18.1226 15.1053 16.864 16.3639C15.6053 17.6226 14.0016 18.4798 12.2558 18.8271C10.51 19.1743 8.70039 18.9961 7.05585 18.3149C5.41132 17.6337 4.00571 16.4802 3.01678 15.0001C2.02785 13.5201 1.50001 11.78 1.50001 9.99999C1.49715 7.4218 2.48911 4.94192 4.26924 3.07692" stroke="#B35200" stroke-width="1.5" stroke-linecap="round" stroke-linejoin="round"/>
<path d="M1.5 3.76921L4.26923 3.0769L4.96154 5.84613" stroke="#B35200" stroke-width="1.5" stroke-linecap="round" stroke-linejoin="round"/>
<path d="M10.5 5.15381V10.6923L14.1 12.4923" stroke="#B35200" stroke-width="1.5" stroke-linecap="round" stroke-linejoin="round"/>
</svg>
